# xmcd
#
# Track frame offsets:
#	150
#	17820
#	34625
#	53181
#	72005
#	90841
#	107973
#	125867
#	143259
#	159149
#	172823
#	191183
#	209024
#	223816
#	232850
#	251639
#	266980
#	292066
#	309474
#	324521
#
# Disc length: 4565 seconds
#
# Revision: 0
# Processed by: cddbd v1.5.2PL0 Copyright (c) Steve Scherf et al.
# Submitted via: EasyCDDAExtractor 16.0.9.1
#
DISCID=2311d314
DTITLE=Bomfunk Mc's - Burnin' Sneakers and In Stereo
DYEAR=2002
DGENRE=Electronic
TTITLE0=Super Electric
TTITLE1=Put Ya Hands Up
TTITLE2=Where's The Party At (feat. Mighty 44)
TTITLE3=Back To Back (feat. Z-Mc)
TTITLE4=Rockin' With The Best
TTITLE5=Freak It On
TTITLE6=Throw Back At Cha
TTITLE7=Live Your Life (feat. Max'C)
TTITLE8=Kingstep
TTITLE9=Something Goin' On (feat. Jessica Folcker)
TTITLE10=We Are Atomic
TTITLE11=Steady Rockin'
TTITLE12=B-Boys and Fly Girls (Y2K Mix)
TTITLE13=Electric Reality
TTITLE14=Freestyler (Long Version)
TTITLE15=Hip Hop Regae
TTITLE16=Uprockin Beats
TTITLE17=Elektric Shock
TTITLE18=Flying Steps
TTITLE19=Ske The Limit
EXTD=
EXTT0=
EXTT1=
EXTT2=
EXTT3=
EXTT4=
EXTT5=
EXTT6=
EXTT7=
EXTT8=
EXTT9=
EXTT10=
EXTT11=
EXTT12=
EXTT13=
EXTT14=
EXTT15=
EXTT16=
EXTT17=
EXTT18=
EXTT19=
PLAYORDER=
